<svg width="400" height="300" xmlns="http://www.w3.org/2000/svg">
  <!-- Background -->
  <rect width="400" height="300" fill="#006400"/>
  
  <!-- Viper pattern background -->
  <path d="M0,0 Q100,50 200,0 T400,0 L400,100 Q300,150 200,100 T0,100 Z" fill="#228B22" opacity="0.3"/>
  <path d="M0,200 Q100,250 200,200 T400,200 L400,300 Q300,350 200,300 T0,300 Z" fill="#228B22" opacity="0.3"/>
  
  <!-- Shield shape -->
  <path d="M200,50 L160,70 L160,180 Q160,220 200,240 Q240,220 240,180 L240,70 Z" fill="#FFFF00" stroke="#000000" stroke-width="3"/>
  
  <!-- Viper silhouette -->
  <path d="M180,100 Q190,90 200,100 Q210,90 220,100 Q225,110 220,120 Q210,110 200,120 Q190,110 180,120 Q175,110 180,100" fill="#000000"/>
  <path d="M200,120 Q205,130 210,140 Q215,150 220,160 Q210,170 200,165 Q190,170 180,160 Q185,150 190,140 Q195,130 200,120" fill="#000000"/>
  <circle cx="190" cy="105" r="2" fill="#FF0000"/>
  <circle cx="210" cy="105" r="2" fill="#FF0000"/>
  
  <!-- Text -->
  <text x="200" y="200" text-anchor="middle" font-family="Arial, sans-serif" font-size="12" font-weight="bold" fill="#000000">VIPERS SC</text>
  <text x="200" y="215" text-anchor="middle" font-family="Arial, sans-serif" font-size="10" fill="#000000">EST. 2013</text>
  
  <!-- Founding year -->
  <rect x="150" y="20" width="100" height="25" fill="#000000"/>
  <text x="200" y="37" text-anchor="middle" font-family="Arial, sans-serif" font-size="14" font-weight="bold" fill="#FFFF00">FOUNDED</text>
  <text x="200" y="270" text-anchor="middle" font-family="Arial, sans-serif" font-size="16" font-weight="bold" fill="#FFFFFF">VIPERS SPORTS CLUB</text>
  <text x="200" y="290" text-anchor="middle" font-family="Arial, sans-serif" font-size="12" fill="#FFFFFF">Kitende • St. Lawrence University</text>
  
  <!-- Decorative elements -->
  <circle cx="100" cy="80" r="8" fill="#FFFF00" opacity="0.6"/>
  <circle cx="300" cy="220" r="8" fill="#FFFF00" opacity="0.6"/>
  <circle cx="80" cy="220" r="6" fill="#FFFF00" opacity="0.4"/>
  <circle cx="320" cy="80" r="6" fill="#FFFF00" opacity="0.4"/>
</svg>